<?xml version="1.0" standalone="no"?>
<!DOCTYPE svg PUBLIC "-//W3C//DTD SVG 20010904//EN"
 "http://www.w3.org/TR/2001/REC-SVG-20010904/DTD/svg10.dtd">
<svg version="1.0" xmlns="http://www.w3.org/2000/svg"
 width="700.000000pt" height="700.000000pt" viewBox="0 0 700.000000 700.000000"
 preserveAspectRatio="xMidYMid meet">
<metadata>
Created by potrace 1.14, written by Peter Selinger 2001-2017
</metadata>
<g transform="translate(0.000000,700.000000) scale(0.100000,-0.100000)"
fill="#000000" stroke="none">
<path d="M700 4112 l0 -2714 34 34 c36 36 448 435 601 583 l93 90 5 1420 c3
781 8 1485 11 1565 17 461 23 574 42 750 7 69 22 130 32 130 8 0 86 -55 108
-75 6 -5 33 -29 60 -52 81 -69 130 -113 318 -287 180 -166 438 -418 895 -875
l544 -544 1339 1341 c736 737 1338 1342 1338 1344 0 6 -615 1 -675 -6 -33 -4
-78 -12 -100 -17 -22 -6 -47 -13 -56 -14 -43 -8 -133 -54 -219 -110 -145 -96
-292 -227 -685 -616 -198 -196 -376 -372 -396 -390 -88 -82 -198 -180 -239
-214 -25 -21 -47 -41 -50 -45 -13 -19 -214 -161 -236 -166 -53 -13 -151 55
-419 291 -145 128 -193 174 -525 505 -406 404 -494 487 -605 570 -33 25 -62
47 -65 50 -3 4 -27 20 -55 36 -96 58 -197 98 -276 109 -24 3 -53 9 -64 12 -11
3 -185 7 -387 7 l-368 2 0 -2714z"/>
<path d="M6004 5302 c-88 -64 -242 -178 -341 -252 l-181 -135 -1 -1490 c0
-820 -1 -1735 -1 -2034 l0 -545 -1005 1008 -1006 1008 -1297 -1301 c-713 -715
-1316 -1320 -1340 -1344 l-42 -43 367 1 c382 2 458 6 557 31 148 36 265 105
450 265 104 89 607 589 1104 1098 l189 193 90 -88 c50 -49 315 -310 589 -581
275 -270 513 -504 530 -520 17 -15 49 -44 70 -63 160 -145 308 -242 430 -282
130 -43 219 -51 647 -52 l397 -2 1 35 c0 20 0 925 0 2011 -1 1811 -5 2645 -15
3000 -3 74 -5 150 -5 168 -1 18 -6 32 -13 32 -7 0 -85 -53 -174 -118z"/>
</g>
</svg>
