<svg width="512" height="512" viewBox="0 0 512 512" fill="none" xmlns="http://www.w3.org/2000/svg">
<path d="M237 0.600011C235.1 0.800011 229.2 1.50001 224 2.10001C144.9 11.1 71.7998 60.7 31.5998 132.6C16.9998 158.8 6.3998 191.4 1.8998 224C0.0998047 236.5 0.0998047 275.5 1.8998 288C12.3998 364.2 52.9998 428.9 116.5 470.6C177.4 510.6 254.2 522.3 325.5 502.3C418.4 476.3 490.1 398 507.4 303.6C523 219.1 497.1 135.4 436.9 75.1C397 35.3 349 11.2 292 2.50001C282 1.00001 244.8 -0.299989 237 0.600011ZM277 31.1C365.9 39.2 442.6 100.3 470.5 185.2C493.7 256.2 481 332.6 436 392.5C398.7 442.2 339.2 475.3 277 480.9C203.2 487.7 130.3 457.7 82.8998 401.1C53.8998 366.5 35.0998 321.6 31.0998 277C18.9998 145.2 121.5 31.7 254 30.1C260.3 30.1 270.7 30.5 277 31.1Z" fill="black"/>
<path d="M121 162V177H176H230.9L174 256.7L117 336.5V350.7V365H210.5H303.9L304.2 319.2L304.5 273.5L307.3 267.8C312.6 257 323.3 250.5 335.5 250.6C343.9 250.7 350.8 253.9 356.9 260.6C365.1 269.5 365 269 365 320.2V365H380H395.1L394.8 316.7C394.4 261.4 394.5 261.9 384.9 247.6C378.6 238.1 371.6 232 361.5 226.9C343.9 218.1 327.2 218.3 305.8 227.5C304.2 228.1 304 227.6 304 224.1V220H289H274V277.5V335H214.4H154.8L157.2 331.7C158.5 330 184.2 294 214.3 251.9L269 175.3V161.1V147H195H121V162Z" fill="black"/>
</svg>
