<svg width="48" height="48" viewBox="0 0 48 48" fill="none" xmlns="http://www.w3.org/2000/svg">
<path d="M10.4536 0.168747C8.8692 0.712498 8.1192 2.44687 8.80358 3.98438C9.00983 4.4625 9.6942 5.16562 10.1161 5.34375L10.4067 5.45625V11.3344V17.2125L10.6505 17.7094C10.8473 18.0937 10.9973 18.2531 11.3536 18.45L11.813 18.7031V19.65V20.6062L10.7161 20.6437C9.77858 20.6719 9.53483 20.7187 9.07545 20.925C8.40045 21.2437 7.7442 21.8906 7.42545 22.575C7.08795 23.2969 7.0692 24.4688 7.38795 25.1531C7.6692 25.7906 8.09108 26.2875 8.61608 26.625L9.06608 26.925L9.1317 27.6C9.3192 29.6625 10.2661 32.1656 11.6161 34.1906C12.3098 35.2312 13.7348 36.7406 14.7848 37.5656L15.563 38.175V42.3281V46.4812L15.8255 46.9781C16.0317 47.3812 16.1817 47.5312 16.5848 47.7375L17.0817 48H24.0005H30.9192L31.4161 47.7375C31.8192 47.5312 31.9692 47.3812 32.1754 46.9781L32.438 46.4812V42.3187V38.1656L32.9817 37.7719C33.8817 37.1156 35.7192 35.1937 36.3661 34.2187C37.7442 32.1562 38.6817 29.6719 38.8692 27.6L38.9348 26.9062L39.3379 26.6719C39.8254 26.3906 40.3317 25.7906 40.6129 25.1625C40.9317 24.4688 40.9129 23.2969 40.5848 22.5937C40.2192 21.8344 39.7411 21.3375 39.0286 20.9812C38.4661 20.7094 38.3254 20.6812 37.3036 20.6437L36.1879 20.6062V19.65V18.7031L36.6473 18.45C37.0129 18.2531 37.1536 18.0937 37.3598 17.6812C37.6036 17.1937 37.6036 17.1281 37.5754 15.8438C37.5473 14.5219 37.5473 14.5125 37.2848 14.2875C36.9286 13.9781 36.3848 13.9781 36.0286 14.2875C35.7661 14.5125 35.7661 14.5312 35.7379 15.6937L35.7004 16.875H23.9911H12.2817V11.25V5.625H23.9911H35.7004L35.7379 6.29062C35.7661 6.88125 35.8036 6.98438 36.0286 7.18125C36.3848 7.49062 36.9286 7.48125 37.2848 7.18125C37.5192 6.975 37.5473 6.89062 37.5754 6.20625C37.6129 5.475 37.6223 5.44687 37.8942 5.33437C38.3067 5.16562 38.9911 4.45312 39.2161 3.95625C39.4973 3.34687 39.4973 2.27812 39.2161 1.67812C38.9629 1.11562 38.3536 0.506248 37.7911 0.243748L37.3598 0.046875L24.1411 0.0281219C11.7942 0.00937271 10.8942 0.0187492 10.4536 0.168747ZM37.1161 2.00625C37.3786 2.14687 37.5942 2.50312 37.5942 2.8125C37.5942 3.12187 37.3786 3.47812 37.1161 3.61875C36.8911 3.73125 34.9411 3.75 24.0098 3.75C14.2505 3.75 11.1098 3.72187 10.9223 3.6375C10.2755 3.34687 10.2567 2.35312 10.8848 2.00625C11.2317 1.80937 36.7411 1.81875 37.1161 2.00625ZM34.313 19.6875V20.625H24.0005H13.688V19.6875V18.75H24.0005H34.313V19.6875ZM38.2129 22.65C38.7098 22.8844 38.9536 23.2969 38.9536 23.9062C38.9536 24.5156 38.7098 24.9281 38.2129 25.1625C37.9223 25.3031 36.6286 25.3125 24.0005 25.3125C8.61608 25.3125 9.71295 25.3594 9.25358 24.7125C8.96295 24.3094 8.96295 23.5031 9.25358 23.1C9.71295 22.4625 8.59733 22.5 23.9817 22.5C36.6286 22.5 37.9223 22.5094 38.2129 22.65ZM36.9942 27.675C36.8161 29.0062 36.1786 30.8719 35.4661 32.1094C33.563 35.4375 30.4973 37.7344 26.7848 38.5969C25.8661 38.8219 25.5286 38.85 24.0473 38.85C22.613 38.8594 22.2098 38.8219 21.3848 38.6437C17.5786 37.7906 14.4661 35.4937 12.5348 32.1094C11.813 30.8531 11.1755 29.0062 11.0161 27.7031L10.9505 27.1875H24.0005H37.0598L36.9942 27.675ZM18.5161 39.7125C22.2473 41.2312 26.5036 41.0906 30.4504 39.3094C30.5348 39.2719 30.563 39.9844 30.563 42.6937V46.125H24.0005H17.438V42.6937C17.438 39.9844 17.4661 39.2719 17.5598 39.3094C17.6161 39.3469 18.0567 39.525 18.5161 39.7125Z" fill="#D32E3A"/>
<path d="M36.0281 10.0687C35.8125 10.2562 35.7656 10.3687 35.7656 10.7344C35.7656 11.2969 36.0938 11.625 36.6563 11.625C37.2188 11.625 37.5469 11.2969 37.5469 10.7344C37.5469 10.1719 37.2188 9.84375 36.6563 9.84375C36.4031 9.84375 36.2063 9.91875 36.0281 10.0687Z" fill="#D32E3A"/>
</svg>
