<svg width="196" height="196" viewBox="0 0 196 196" fill="none" xmlns="http://www.w3.org/2000/svg">
<g clip-path="url(#clip0_202_143)">
<path d="M50.9783 15.6734L50.1276 16.3469L50.0213 96.7711C49.9504 154.901 50.0567 177.408 50.3403 178.117C50.5529 178.649 51.1909 179.216 51.7935 179.428C52.5378 179.712 65.8296 179.818 93.9374 179.818C121.513 179.818 135.018 179.925 135.018 180.173C135.018 180.74 137.038 181.484 140.724 182.299L144.092 183.044L145.084 187.262C146.36 192.897 146.715 193.075 152.74 191.125L156.108 190.062L159.191 193.287C163.232 197.505 163.303 197.505 167.273 193.287L170.285 190.097L174.291 191.338C178.331 192.578 179.537 192.614 180.245 191.444C180.423 191.196 180.954 189.211 181.451 187.084L182.372 183.185L186.59 182.122C192.297 180.704 192.297 180.669 190.666 175.033L189.461 170.886L192.616 167.98C196.869 164.045 196.869 163.762 192.616 159.827L189.497 156.921L190.595 153.27C191.233 151.25 191.73 149.194 191.73 148.769C191.73 147.315 190.595 146.606 186.909 145.791C182.549 144.834 182.514 144.834 182.337 144.303C182.266 144.054 181.84 142.247 181.415 140.297C180.848 137.745 180.387 136.576 179.785 136.008L178.969 135.264V76.0005V16.7368L178.083 15.8861L177.233 15H114.531C53.2822 15 51.7935 15 50.9783 15.6734ZM173.936 78.3398L173.83 136.717L172.129 137.249L170.427 137.781L168.159 135.512L165.855 133.244V81.8843C165.855 30.064 165.855 29.5323 164.65 28.7526C164.437 28.6108 141.859 28.469 114.495 28.469C68.6652 28.469 64.66 28.5045 64.0574 29.0716C63.4548 29.6032 63.4194 32.1907 63.4194 97.3028C63.4194 164.471 63.4194 164.931 64.1283 165.64C64.8372 166.349 65.298 166.349 98.6161 166.349H132.395L134.734 168.724L137.074 171.134L136.471 172.906L135.904 174.679H95.4969H55.0899L54.9835 97.3028L54.9126 19.9622H114.46H174.007L173.936 78.3398ZM160.786 83.054L160.857 132.854L158.624 135.3L156.356 137.781L152.528 136.646C150.401 136.008 148.31 135.512 147.92 135.512C146.644 135.512 145.935 136.788 145.049 140.723C144.588 142.814 144.127 144.586 144.056 144.692C143.95 144.763 142.107 145.26 139.945 145.756C136.648 146.536 135.869 146.855 135.266 147.634L134.557 148.556L135.869 152.774L137.145 156.956L134.734 159.154L132.36 161.351L100.388 161.387H68.3817V97.2319V33.0768L114.566 33.1477L160.715 33.254L160.786 83.054ZM169.364 142.956C169.825 142.956 171.526 142.53 173.192 142.034C174.822 141.538 176.276 141.183 176.346 141.29C176.453 141.396 176.843 142.885 177.233 144.586C178.154 148.52 178.615 148.981 182.549 149.867C184.18 150.222 185.633 150.612 185.775 150.718C185.917 150.86 185.598 152.455 185.03 154.298C184.038 157.594 184.038 159.012 184.995 159.615C185.137 159.721 186.236 160.713 187.441 161.848L189.567 163.904L186.944 166.42C183.861 169.327 183.79 169.575 185.172 173.97C185.668 175.529 186.058 176.912 186.058 177.018C186.058 177.124 184.605 177.479 182.833 177.869C178.544 178.719 178.154 179.074 177.374 182.796C177.02 184.426 176.63 185.986 176.453 186.234C176.24 186.588 175.496 186.482 173.015 185.737C171.278 185.206 169.541 184.78 169.151 184.78C168.726 184.78 167.414 185.844 165.855 187.474L163.303 190.168L160.574 187.474C159.049 185.95 157.561 184.78 157.171 184.78C156.781 184.78 155.186 185.17 153.626 185.667C152.067 186.163 150.614 186.553 150.365 186.553C150.153 186.553 149.621 185.099 149.196 183.185C148.274 179.109 147.884 178.755 143.702 177.869C142.036 177.514 140.618 177.124 140.547 177.018C140.476 176.912 140.866 175.352 141.433 173.615C141.965 171.843 142.426 170.213 142.426 169.929C142.461 169.681 141.221 168.192 139.732 166.633L136.967 163.797L139.307 161.6C142.638 158.516 142.674 158.41 141.611 154.901C140.228 150.293 140.016 150.753 144.056 149.832C146.183 149.336 147.743 148.769 148.026 148.414C148.239 148.095 148.806 146.323 149.196 144.515C149.621 142.672 150.117 141.183 150.259 141.183C150.436 141.183 151.819 141.573 153.343 142.07C157.561 143.416 157.703 143.381 160.609 140.297L163.161 137.603L165.855 140.297C167.663 142.07 168.797 142.956 169.364 142.956Z" fill="#D32E3A" fill-opacity="0.07"/>
<path d="M77.8098 42.1507C76.2857 43.6394 77.03 45.9788 79.0858 46.3687C79.7238 46.475 96.0639 46.5104 115.381 46.475C149.373 46.3687 150.578 46.3332 151.287 45.6952C152.173 44.88 152.244 43.4622 151.464 42.3634L150.932 41.5836H114.637C82.1341 41.5836 78.306 41.6545 77.8098 42.1507Z" fill="#D32E3A" fill-opacity="0.07"/>
<path d="M77.7748 62.3189C77.2786 62.7797 76.8887 63.4885 76.8887 63.9139C76.8887 64.3038 77.2786 65.0481 77.7748 65.5089L78.6255 66.395H100.459H122.293L123.144 65.5089C123.64 65.0481 124.03 64.3038 124.03 63.9139C124.03 63.524 123.64 62.7797 123.144 62.3189L122.293 61.4327H100.459H78.6255L77.7748 62.3189Z" fill="#D32E3A" fill-opacity="0.07"/>
<path d="M132.253 62.1416C131.261 63.0632 131.225 64.7291 132.182 65.6861C132.856 66.3596 133.352 66.395 141.753 66.395C150.153 66.395 150.649 66.3596 151.323 65.6861C151.713 65.2962 152.032 64.5164 152.032 63.9139C152.032 63.3113 151.713 62.5315 151.323 62.1416C150.649 61.4682 150.153 61.4327 141.823 61.4327C133.458 61.4327 132.998 61.4682 132.253 62.1416Z" fill="#D32E3A" fill-opacity="0.07"/>
<path d="M78.413 81.6363C76.8534 82.2743 76.4281 84.3656 77.5977 85.5352C78.3066 86.2441 78.7674 86.2441 97.624 86.2441C116.481 86.2441 116.941 86.2441 117.65 85.5352C118.536 84.6491 118.572 83.3731 117.686 82.3098L117.012 81.4591L98.0848 81.3882C87.6286 81.3528 78.8383 81.4591 78.413 81.6363Z" fill="#D32E3A" fill-opacity="0.07"/>
<path d="M128.638 81.53C126.865 82.2034 126.227 84.5073 127.503 85.6416C128.106 86.1733 129.453 86.2441 139.519 86.2441C150.046 86.2441 150.897 86.2087 151.429 85.6061C152.279 84.6846 152.173 82.9478 151.287 82.1325C150.578 81.4945 149.798 81.4591 139.838 81.3882C133.99 81.3528 128.921 81.4236 128.638 81.53Z" fill="#D32E3A" fill-opacity="0.07"/>
<path d="M77.6325 102.407C76.6755 103.647 76.711 104.498 77.7743 105.561L78.625 106.448H102.586H126.546L127.397 105.561C128.46 104.498 128.496 103.647 127.539 102.407L126.83 101.485H102.586H78.3414L77.6325 102.407Z" fill="#D32E3A" fill-opacity="0.07"/>
<path d="M135.727 102.194C134.77 103.151 134.84 104.533 135.904 105.561C136.754 106.448 136.825 106.448 143.454 106.448C149.692 106.448 150.223 106.412 151.11 105.703C152.244 104.817 152.35 103.222 151.322 102.194C150.649 101.521 150.153 101.485 143.524 101.485C136.896 101.485 136.4 101.521 135.727 102.194Z" fill="#D32E3A" fill-opacity="0.07"/>
<path d="M77.7743 122.22C76.711 123.284 76.6755 124.134 77.6325 125.375L78.3414 126.297H87.7343C96.6309 126.297 97.1272 126.261 97.8006 125.588C98.8285 124.56 98.7222 122.965 97.5879 122.079C96.7018 121.37 96.2056 121.334 87.628 121.334H78.625L77.7743 122.22Z" fill="#D32E3A" fill-opacity="0.07"/>
<path d="M108.966 122.22C107.902 123.284 107.867 124.134 108.824 125.375L109.533 126.297H122.435H135.337L136.081 125.34C136.967 124.205 136.79 122.894 135.656 121.937C135.018 121.405 133.813 121.334 122.364 121.334H109.816L108.966 122.22Z" fill="#D32E3A" fill-opacity="0.07"/>
<path d="M77.633 138.56C76.9596 139.447 76.8887 139.978 76.8887 145.508C76.8887 151.391 76.8887 151.498 77.7748 152.348L78.6255 153.235H95.7453C110.668 153.235 112.971 153.164 113.68 152.668C114.425 152.136 114.46 151.959 114.46 145.437C114.46 138.915 114.425 138.738 113.68 138.206C112.971 137.71 110.668 137.639 95.639 137.639H78.3419L77.633 138.56ZM109.852 145.437V148.272H95.8516H81.8509V145.437V142.601H95.8516H109.852V145.437Z" fill="#D32E3A" fill-opacity="0.07"/>
<path d="M158.872 146.287C153.307 147.67 148.416 151.994 146.324 157.488C142.567 167.342 148.168 178.365 158.376 181.378C160.751 182.087 165.394 182.122 167.839 181.449C179.536 178.33 185.066 164.364 178.615 154.298C177.126 151.994 173.794 148.91 171.597 147.776C167.946 145.933 162.877 145.33 158.872 146.287ZM168.761 151.959C174.68 154.794 177.729 161.529 175.815 167.625C174.042 173.367 169.257 176.983 163.409 176.983C155.788 176.983 150.153 171.418 150.153 163.868C150.153 157.984 153.768 153.199 159.652 151.214C161.991 150.47 166.351 150.789 168.761 151.959Z" fill="#D32E3A" fill-opacity="0.07"/>
</g>
<defs>
<clipPath id="clip0_202_143">
<rect width="196" height="196" fill="white"/>
</clipPath>
</defs>
</svg>
