<svg width="196" height="196" viewBox="0 0 196 196" fill="none" xmlns="http://www.w3.org/2000/svg">
<path d="M44.293 19.9944C34.2877 21.8076 25.8043 28.3483 21.5302 37.6088C19.6522 41.721 19.0046 44.7971 19.0046 50.1073C18.9722 54.0252 19.1017 55.2557 19.7169 57.5546C20.6235 60.8573 22.4368 64.84 24.3472 67.6246C25.61 69.5026 56.3058 100.976 58.119 102.238C59.2847 103.08 62.3283 102.821 65.1454 101.623C74.0497 97.8994 89.171 84.2677 96.8773 73.032C100.795 67.3008 102.479 62.9296 101.734 60.5011C101.216 58.8822 81.1732 38.4183 80.1047 38.4507C79.1657 38.4507 78.0648 39.5192 78.0648 40.4258C78.0648 40.8468 80.9142 43.9876 86.1597 49.395C90.628 53.9605 94.2545 57.7813 94.2545 57.8784C94.2545 57.9755 93.2831 58.4612 92.1175 58.9793C90.9518 59.4974 88.6205 60.8249 86.9368 61.9582C75.7658 69.4379 63.0407 82.7782 58.3133 91.974C57.439 93.6901 56.6296 95.1148 56.5324 95.1148C56.4353 95.1148 50.1213 88.8008 42.4797 81.0945C28.2004 66.6532 26.6461 64.8724 24.8653 60.6306C23.2787 56.8746 22.8901 54.77 22.8901 50.1073C22.8901 44.8942 23.5053 42.2391 25.869 37.6736C27.0671 35.2775 27.9737 34.1442 30.4669 31.6186C33.9963 28.0569 36.6514 26.3408 41.1845 24.7865C44.0663 23.7828 44.4549 23.7504 49.0851 23.718C53.1973 23.718 54.3306 23.8475 56.4677 24.4627C59.5761 25.337 62.6845 26.8912 65.372 28.8664C66.4729 29.6758 67.7357 30.3558 68.1243 30.3558C69.0633 30.3558 69.9699 29.4168 69.9699 28.4454C69.9699 26.4703 62.8464 22.1314 57.0829 20.5772C54.2982 19.8325 46.9805 19.5087 44.293 19.9944ZM97.9782 62.4763C96.3268 69.9559 82.0151 86.2104 69.6461 94.6291C66.3434 96.8957 62.7817 98.6442 61.2274 98.7413C60.1265 98.8385 60.0942 98.8061 60.1913 97.7376C60.3856 95.212 64.4006 88.8008 69.4518 82.9077C78.6476 72.1901 92.4413 61.5049 97.1039 61.4401C98.1725 61.4401 98.1725 61.4725 97.9782 62.4763Z" fill="#D32E3A" fill-opacity="0.07"/>
<path d="M140.654 53.0216C137.287 53.7987 133.434 55.4501 130.422 57.4252C128.803 58.5261 123.331 63.7068 112.063 74.813C103.256 83.5231 95.7762 91.0999 95.4848 91.6503C94.7077 93.0427 94.7724 94.8559 95.6791 97.4463C99.6617 108.682 119.737 129.178 131.782 134.262C134.114 135.233 136.607 135.492 137.837 134.845C138.355 134.586 146.029 127.203 154.869 118.428C172.03 101.494 173.325 99.9719 175.527 94.8559C178.732 87.2791 178.765 78.3748 175.559 70.8303C171.577 61.505 162.737 54.4787 152.732 52.7302C149.72 52.1797 143.698 52.3416 140.654 53.0216ZM154.901 57.069C159.467 58.3966 162.51 60.1127 165.943 63.3507C173.908 70.9275 176.434 82.7136 172.224 92.816C170.281 97.4787 168.889 99.0653 153.995 113.863L139.845 127.915L138.614 125.293C133.304 113.992 115.463 96.0216 104.616 91.0675C103.45 90.5494 102.479 90.0961 102.414 90.0638C102.187 89.9342 129.645 62.8974 131.394 61.5374C133.304 60.048 136.315 58.429 138.97 57.4252C143.439 55.7415 149.915 55.5796 154.901 57.069ZM103.062 94.5969C111.254 98.4824 124.723 111.013 131.847 121.407C134.049 124.613 135.959 128.433 136.251 130.182C136.412 131.25 136.348 131.38 135.732 131.38C133.66 131.38 128.123 128.174 122.619 123.803C111.675 115.093 99.856 100.522 98.8846 94.5969L98.6903 93.3988L99.9855 93.5607C100.665 93.6579 102.058 94.1436 103.062 94.5969Z" fill="#D32E3A" fill-opacity="0.07"/>
<path d="M135.312 65.3257C134.858 65.6495 134.308 66.3942 134.081 66.9447C133.531 68.2399 134.308 69.535 135.635 69.535C136.704 69.535 138.938 67.4304 138.938 66.4266C138.938 64.8076 136.769 64.16 135.312 65.3257Z" fill="#D32E3A" fill-opacity="0.07"/>
<path d="M124.303 76.2699C120.514 80.0583 118.215 82.6163 118.215 83.0049C118.215 84.0734 119.154 85.0771 120.093 85.0771C120.806 85.0771 122.166 83.8791 127.055 78.9898C133.434 72.611 133.855 71.9311 132.527 70.733C131.232 69.535 130.649 69.9235 124.303 76.2699Z" fill="#D32E3A" fill-opacity="0.07"/>
<path d="M29.3983 58.1375C28.5564 59.0765 28.7507 59.9184 30.0783 61.2135C31.5029 62.6059 32.7657 62.8001 33.5105 61.6992C34.2876 60.5983 34.1257 59.8536 32.9276 58.6556C31.6648 57.3928 30.2401 57.1985 29.3983 58.1375Z" fill="#D32E3A" fill-opacity="0.07"/>
<path d="M35.2267 63.642C34.0287 64.9696 34.4172 65.5524 40.7636 71.8988C47.1424 78.2776 47.8224 78.6985 49.0204 77.371C50.2184 76.0434 49.8299 75.4929 43.4835 69.1466C37.1047 62.7354 36.4248 62.3145 35.2267 63.642Z" fill="#D32E3A" fill-opacity="0.07"/>
<path d="M84.3788 102.109C78.3562 105.217 80.2666 114.057 86.9691 114.025C93.6069 113.992 95.6145 105.25 89.689 102.238C88.1995 101.461 85.7387 101.397 84.3788 102.109ZM88.7176 106.318C90.0776 108.067 89.1386 110.139 86.9691 110.139C84.7997 110.139 83.8607 108.067 85.2206 106.318C85.7063 105.703 86.192 105.476 86.9691 105.476C87.7462 105.476 88.2319 105.703 88.7176 106.318Z" fill="#D32E3A" fill-opacity="0.07"/>
<path d="M67.2177 113.442C63.6235 115.384 62.4903 119.432 64.5949 122.637C66.991 126.232 72.6574 126.232 75.0535 122.605C76.8668 119.853 76.1868 116.291 73.4345 114.089C72.4308 113.28 71.8803 113.085 70.1966 113.021C68.8043 112.956 67.8976 113.085 67.2177 113.442ZM71.5565 117.651C72.9165 119.399 71.9775 121.472 69.808 121.472C67.6386 121.472 66.6996 119.399 68.0595 117.651C68.5452 117.036 69.0309 116.809 69.808 116.809C70.5851 116.809 71.0708 117.036 71.5565 117.651Z" fill="#D32E3A" fill-opacity="0.07"/>
<path d="M83.6663 128.951C79.036 131.283 77.9675 137.435 81.5616 141.191C85.1234 144.979 91.5669 144.008 94.0277 139.345C94.9344 137.629 94.9991 134.003 94.1896 132.481C92.085 128.595 87.4871 127.073 83.6663 128.951ZM89.0737 132.513C91.8259 133.938 91.4698 138.115 88.4909 139.378C86.8719 140.058 85.0262 139.442 83.9901 137.888C81.7235 134.488 85.4148 130.603 89.0737 132.513Z" fill="#D32E3A" fill-opacity="0.07"/>
<path d="M104.778 141.709C101.119 143.393 99.4678 147.473 101.022 151.002C102.382 154.046 104.519 155.47 107.692 155.47C114.168 155.47 117.374 147.829 112.808 143.231C111.513 141.903 109.57 141.094 107.692 141.094C106.818 141.094 105.49 141.385 104.778 141.709ZM109.441 145.465C111.513 146.534 111.545 149.674 109.505 151.034C108.89 151.455 108.081 151.779 107.692 151.779C106.462 151.779 104.81 150.419 104.487 149.124C103.742 146.177 106.656 144.008 109.441 145.465Z" fill="#D32E3A" fill-opacity="0.07"/>
<path d="M64.3034 153.366C61.2274 155.211 60.3855 158.676 62.2959 161.525C63.332 163.079 64.951 163.889 66.8938 163.889C70.4879 163.889 73.0783 160.716 72.4307 157.122C72.1716 155.826 70.6498 153.916 69.2899 153.204C67.9947 152.556 65.4691 152.621 64.3034 153.366ZM68.189 157.283C69.387 158.611 67.7356 160.748 66.1167 159.906C64.5948 159.064 65.1453 156.636 66.8938 156.636C67.2823 156.636 67.8652 156.927 68.189 157.283Z" fill="#D32E3A" fill-opacity="0.07"/>
<path d="M94.7077 160.813C93.9954 161.137 92.8945 162.011 92.2469 162.756C88.5556 167.062 90.6927 173.408 96.2943 174.801C101.507 176.096 106.429 170.851 104.94 165.573C104.422 163.727 102.608 161.59 100.925 160.813C99.2085 160.036 96.4238 160.036 94.7077 160.813ZM100.05 164.925C102.965 167.386 100.439 171.984 96.78 170.883C94.1573 170.106 93.4773 166.803 95.5496 164.957C96.8772 163.792 98.658 163.759 100.05 164.925Z" fill="#D32E3A" fill-opacity="0.07"/>
</svg>
