<svg width="512" height="512" viewBox="0 0 512 512" fill="none" xmlns="http://www.w3.org/2000/svg">
<path d="M251.4 11.8C249.7 12.9 247.7 17.3 238.4 40.2C229.8 61.3 215.4 99.9 211 113.5C208.4 121.7 207 123.7 207 119.3C207 110.5 199.1 73 191.4 45.7C185.3 24.1 184.8 23 181 23C178.4 23 177.7 23.6 176.3 26.7C171.8 37.7 159.8 91.7 154.4 125.8L151.6 143.1L146.7 133.3C134.7 109.3 120.8 90.6 106.3 79C98.4999 72.7 96.1999 71.9 93.3999 74.7C91.9999 76.2 91.7999 77.8 92.3999 87.5C93.1999 100.1 95.3999 122 97.5999 139.5C99.1999 152.7 104.7 187.3 105.7 190.5C106.1 191.7 103.6 189.9 99.3999 186C83.8999 171.4 65.6999 158.9 48.9999 151.3C37.8999 146.3 34.6999 145.9 32.3999 149.5C27.5999 156.8 39.1999 192.5 56.0999 222.3C71.2999 249 101 290.1 127.8 321.3C128.8 322.4 126.4 321.7 120.9 319.1C101.7 310.1 72.9999 301.9 43.5999 297C17.1999 292.6 14.7999 292.5 12.5999 294.9C9.29994 298.6 11.0999 300.9 24.6999 310.6C66.7999 340.6 113.5 361 139.9 361H144.5L102.2 403.3C72.1999 433.3 59.9999 446.2 59.9999 447.8C59.9999 450.7 64.1999 453.5 66.6999 452.1C67.6999 451.6 86.8999 432.6 109.5 410.1C132 387.5 150.8 369 151.2 369C151.7 369 152 371.5 152 374.6C152 377.7 152.9 384.6 154 390C159.7 418 177.3 453.5 203.9 490.8C211 500.8 213.7 502.5 217.1 499.4C219.5 497.2 219.3 493.5 215 467.4C210.2 438.7 202.3 410.8 193.5 391.5C191.1 386.1 190.5 384.1 191.7 385.2C254.8 439.2 314.9 475 351.4 480.1C358.9 481.2 360.2 481.1 362.5 479.6C365.8 477.4 365.7 474.6 361.9 465.4C355.6 450.2 341 428.6 326.7 413.4C323.5 409.9 321.3 407 322 407C322.7 407 328.5 407.9 334.9 409C360.9 413.4 395.1 417.3 426.7 419.6C435.7 420.2 435.8 420.2 437.5 417.7C439.5 414.5 438.8 412.8 431.6 404.8C420.3 392.3 400.6 378.1 379.2 367.3C372.4 363.8 367.4 360.8 368.2 360.6C368.9 360.4 376 359.2 384 358C411.4 353.9 458.7 343.6 480.3 337C487.8 334.7 490.2 332 488.1 328.3C486.1 324.5 437.7 312.2 404.5 307C396.8 305.8 390.4 304.6 390.2 304.5C390 304.3 392.9 303.2 396.7 302C407.3 298.5 443.8 284.9 461 278C490 266.4 499.9 261.9 500.5 259.9C501.3 257.3 500.3 254.3 498.3 253.6C497.4 253.2 485.7 252.4 472.2 251.8C446 250.6 408.4 251.8 384.5 254.4C377.9 255.2 372.4 255.7 372.3 255.6C372.1 255.5 381.1 250 392.3 243.5C427.7 222.9 484.6 186.7 487.9 182.7C489.9 180.2 488.5 176.2 485.3 175.4C481.5 174.4 453.7 179.2 434.5 184C419.5 187.8 391.1 197 379.2 201.8C374 204 374.2 203.7 393.8 184.2C421.1 157.1 437.3 136.3 448.4 114.3C453.2 104.6 454 101 451.5 99C449.1 97 444.3 98.5 429.9 105.8C413.5 114.1 392.1 128.1 373.6 142.6C366 148.6 358.6 154.4 357.2 155.5C355.8 156.5 358.8 152.3 363.9 146C382.8 122.4 398.7 98.1 408.1 78.6C413.6 67.2 414.8 62.7 413 60.5C411 58.1 407.5 58.7 398.2 63.4C373.8 75.7 342.9 100.8 316.5 130C312.7 134.1 310 136.6 310.3 135.5C310.6 134.4 313.6 125.6 317 116C324.2 95.5 329.8 74.3 333.4 54C337.2 32.6 337.6 26.8 335.5 24.7C333.8 22.9 331.2 22.5 329.4 23.8C325.9 26.1 290.6 82.2 267.2 122.5L256.8 140.5L257.4 134C257.7 130.4 258.4 123 259 117.5C262 86.4 260.9 16.7 257.3 12.8C255.6 10.9 253.3 10.5 251.4 11.8ZM250.9 64.5C251.1 97.4 248.2 132.9 243.4 156.9C241 168.9 240.5 170.1 226.2 198.9C205.6 240.1 188.5 278.9 179 306C175.2 316.9 174 318.9 174.5 313.4C174.8 311.2 175.4 304.3 176.1 298C181.7 239.5 206.3 150 241.6 59.2L249.5 38.8L250.2 43.7C250.5 46.3 250.9 55.7 250.9 64.5ZM189.5 78.5C194.2 99.2 196.8 115 198.2 131.7C199.6 148.2 199.8 146.8 191.1 176.7C183.4 203.4 177.1 229.3 172.6 253C168.9 272.8 165 301.2 165 308.8C164.9 323.8 161.3 308.5 157.8 278.5C155.8 261.2 156.1 194.9 158.3 173.5C160.9 149.1 164.6 123.3 168.6 102.1C172.2 83.1 179.8 49.2 180.8 47.5C181.5 46.4 184.7 57.8 189.5 78.5ZM321.5 62.6C311 111.3 293.5 155.7 275.6 179.4C254.3 207.4 228.5 245.1 204 284C190.2 305.9 189.3 307.1 191.3 301.5C206.2 259.3 244.9 180.5 280.2 120C296.6 92.1 323 49.7 323.7 50.3C323.9 50.6 322.9 56.1 321.5 62.6ZM393.5 85.2C375 118.4 347.5 152.9 299.8 203C279.5 224.3 210.4 293.2 211.5 291C212 290.2 218 280.7 224.9 270C286.9 173.7 338.9 112.9 384.6 83.1C397.1 74.9 398.4 74.2 398.9 74.6C399.1 74.8 396.7 79.5 393.5 85.2ZM124.6 115C132.6 127 140.1 141.4 145.5 154.8L149.2 164.2L147.8 178.8C147 187.9 146.5 207.6 146.5 230.5C146.5 268.2 147.2 279.3 151 303C152.1 309.3 152.7 314.6 152.5 314.8C152 315.3 140.6 285.6 136.5 273C122.2 228.4 111 173 105 116.2C103.9 105.6 103 95.2 103 93.2L103.1 89.5L110.3 97C114.3 101.1 120.7 109.2 124.6 115ZM435.9 116.7C411.6 157.3 371.3 196.7 304.1 245.9C291.5 255 228.8 297.3 223 300.5C220 302.2 250.7 270.6 286.1 235.5C345.1 177.1 379.1 148.1 414 126.2C421.9 121.2 436.6 113.1 437.8 113C438 113 437.2 114.7 435.9 116.7ZM57.6999 167.3C72.5999 176 83.9999 185 97.4999 198.5L109.5 210.5L114.2 230C122 262.7 132.8 295.5 143.9 320.5L147 327.5L142 322C126.4 305 96.1999 266.2 82.1999 245.3C60.0999 212.1 45.6999 182.4 42.4999 163.2L41.7999 159L44.6999 160.2C46.1999 160.8 52.0999 164 57.6999 167.3ZM461.5 188.9C456.9 193.1 394.9 230.8 363.5 248.6C338.3 262.8 278.6 293 257 302.5C236.6 311.4 209.8 322.2 209.3 321.7C209.1 321.4 216.3 316.6 225.2 310.9C264 286.3 305 258.2 329.5 239.5C353.9 220.8 398 202.8 447 191.5C455 189.6 461.7 188.1 462 188.1C462.2 188 462 188.4 461.5 188.9ZM465.4 261.7L473.2 262.3L462.4 266.7C367.1 305.3 263.3 333.9 205 337.5L195.5 338.1L213.6 331.2C247.7 318.1 287.8 300 322.6 281.9C343.8 271 348.3 269.5 372.5 266.1C399.8 262.2 445.8 260 465.4 261.7ZM48.9999 308.1C92.9999 316.1 129.9 330.9 145 346.6L149.5 351.2L139.5 350.7C123.7 349.8 105.8 344.7 85.3999 335C68.8999 327.3 33.2999 306.1 36.4999 306C37.0999 306 42.6999 306.9 48.9999 308.1ZM393.7 315.5C409.4 317.6 427.9 321.2 448.5 326.3L465.5 330.4L459.9 332.1C449.9 335.2 413.6 342.9 392.8 346.4C348.8 353.9 320.3 356.4 280.5 356.4C249.9 356.5 236.7 355.6 212.2 351.9C196.5 349.5 191.9 348.2 199.5 348.1C219 347.8 268.5 339.3 305 329.8C316.6 326.9 346.7 318.3 355 315.6C361.1 313.7 379.1 313.6 393.7 315.5ZM211.6 362C218.7 363 230.4 364.5 237.5 365.2C254.8 366.9 309.8 366.6 329.5 364.8L344.5 363.3L353.5 366.8C378 376.3 407.7 394.2 418.9 406.4C421.8 409.5 423 409.4 402.4 407.5C341.1 401.7 283.4 390.4 237 375C219.6 369.3 196.1 360.2 198.1 360C198.4 360 204.5 360.9 211.6 362ZM178.2 383.6C184.2 393.8 190.9 410.2 195.5 426C199 438 206 470.3 206 474.5C206 476.9 201.6 470.5 191.8 454C173.4 423.2 163.3 395.8 162.4 374.5L161.9 363.5L167.7 369.6C170.9 372.9 175.6 379.2 178.2 383.6ZM207.3 375.1C229.7 384.1 262.1 393.9 288.8 399.7L301.5 402.5L309.8 410.4C326.9 426.8 345.3 451.5 351.6 466.7L353.1 470.3L348.8 469.6C341.4 468.4 324.3 462.2 311.6 456.2C282 442 246.6 417.7 205.8 383.6C195.5 375.1 186.8 367.6 186.5 367C186.1 366.4 188.5 367.1 191.7 368.6C194.9 370 201.9 372.9 207.3 375.1Z" fill="black"/>
</svg>
