<svg width="48" height="48" viewBox="0 0 48 48" fill="none" xmlns="http://www.w3.org/2000/svg">
<path d="M34.1933 2.54177C32.5433 2.91677 31.1652 4.30427 30.7808 5.96365C30.6214 6.64802 30.7058 7.84802 30.9683 8.5324C31.6152 10.2386 33.3308 11.4105 35.1871 11.4105C36.4621 11.4105 37.4089 11.0168 38.3464 10.0886C40.3339 8.1199 40.0246 4.8199 37.6996 3.22615C36.7152 2.55115 35.3371 2.27927 34.1933 2.54177ZM36.4902 4.06052C37.1839 4.3699 37.7371 4.9324 38.0652 5.63552C38.2808 6.11365 38.3277 6.32927 38.3183 6.9574C38.3183 8.20427 37.7558 9.15115 36.6683 9.72302C35.8714 10.1449 34.8589 10.2199 34.0433 9.91052C31.9714 9.1324 31.3246 6.4324 32.8246 4.82927C33.3496 4.26677 33.6964 4.05115 34.3527 3.86365C35.0183 3.67615 35.8246 3.75115 36.4902 4.06052Z" fill="#D32E3A"/>
<path d="M22.5592 11.673C21.9967 11.8699 21.5092 12.2168 21.1623 12.6762C21.0311 12.8543 20.0467 14.9262 18.9873 17.2887L17.0561 21.5824L17.0467 22.473C17.0467 23.2605 17.0748 23.4199 17.2998 23.8324C17.5623 24.3293 18.1998 24.9855 18.6498 25.2199C19.1561 25.4824 20.0186 25.5949 20.5717 25.4824C21.2467 25.3418 21.9686 24.9199 22.3436 24.4418C22.5123 24.2262 23.2904 22.6137 24.0873 20.8512L25.5217 17.6449L26.2717 17.6168C26.6936 17.598 27.0311 17.6168 27.0311 17.6449C27.0311 17.673 24.4998 23.3637 21.4154 30.2824C18.3311 37.2012 15.7529 43.0512 15.6873 43.2855C15.6217 43.5387 15.5936 43.9324 15.6311 44.2512C15.7717 45.5918 16.6248 46.5668 17.9561 46.9043C18.9873 47.1668 19.9811 46.8855 20.7498 46.1074C21.2561 45.5918 21.3217 45.4605 24.4811 38.3637C26.2529 34.3887 27.7342 31.1168 27.7717 31.0699C27.8561 30.9855 29.5623 31.7449 29.5623 31.8668C29.5623 31.9137 28.8686 33.5074 28.0061 35.4199C27.1529 37.3324 26.4217 39.1137 26.3654 39.3855C26.1404 40.6418 26.8529 42.0199 28.0436 42.6012C28.5029 42.8262 28.6904 42.8637 29.3748 42.8543C30.3404 42.8543 30.8936 42.6293 31.5311 41.9637C31.9154 41.5793 32.1873 41.0168 34.1561 36.6199C35.3654 33.9199 36.4342 31.473 36.5279 31.1918C36.8936 30.1324 36.5936 28.9324 35.7498 28.098C35.3842 27.7324 34.9811 27.5168 32.8248 26.5605C31.4373 25.9418 30.3123 25.4074 30.3123 25.3793C30.3123 25.3043 31.5498 22.4918 31.6998 22.2293C31.7748 22.098 31.8404 22.1824 32.0842 22.6793C32.4217 23.3918 32.9279 23.8887 33.6779 24.2449L34.2029 24.4887H39.2186H44.2342L44.7592 24.2449C45.4717 23.9074 46.0061 23.4012 46.3154 22.773C46.5311 22.323 46.5779 22.1168 46.5779 21.4887C46.5779 20.823 46.5404 20.6637 46.2686 20.1105C45.9404 19.4355 45.4436 18.948 44.7873 18.6574C44.4592 18.5074 43.9904 18.4793 40.6248 18.4418L36.8373 18.3949L36.1436 16.848C34.2029 12.4699 34.1561 12.3855 33.1998 11.8699L32.6092 11.5512L27.8279 11.5324C23.4311 11.5043 23.0092 11.523 22.5592 11.673ZM32.5154 12.9949C32.7217 13.0887 32.9654 13.248 33.0592 13.3605C33.1529 13.4637 33.8186 14.8699 34.5404 16.4918C35.2623 18.1043 35.9186 19.4918 35.9936 19.5668C36.1061 19.6887 36.7529 19.7168 40.1936 19.7543L44.2529 19.8012L44.5998 20.073C45.0123 20.3824 45.3123 20.9637 45.3123 21.4418C45.3123 22.1824 44.7217 22.9324 43.9904 23.1293C43.7467 23.1949 42.0779 23.223 39.0029 23.2043C33.9873 23.1762 34.1279 23.1855 33.6123 22.6418C33.4998 22.5105 33.1623 21.8824 32.8811 21.2449C32.5904 20.6074 32.2717 20.0074 32.1686 19.9137C31.9248 19.7074 31.5779 19.7074 31.3623 19.923C31.1936 20.0918 28.7186 25.5668 28.7186 25.7824C28.7186 26.1199 29.1311 26.3543 31.6904 27.4887C33.1717 28.1449 34.5311 28.7918 34.7092 28.923C35.0842 29.2043 35.3748 29.7949 35.3748 30.3012C35.3748 30.8637 31.0342 40.5668 30.5654 41.0543C29.4967 42.1512 27.6592 41.373 27.6686 39.8262C27.6779 39.4605 27.9779 38.7105 29.4217 35.4762C31.2686 31.3324 31.2967 31.2574 30.8373 30.9574C30.3686 30.648 27.6779 29.5043 27.4248 29.5043C27.2748 29.5043 27.0873 29.5793 27.0029 29.673C26.9186 29.7668 25.3436 33.2168 23.5061 37.3324C21.5561 41.7199 20.0654 44.9449 19.9154 45.1043C19.6529 45.3949 19.0342 45.7137 18.7342 45.723C17.7217 45.7324 16.7936 44.7293 16.9342 43.7824C16.9623 43.5855 19.6248 37.5105 22.8498 30.2824C26.0748 23.0543 28.7186 17.0355 28.7186 16.8949C28.7186 16.7637 28.6342 16.5762 28.5311 16.473C28.3529 16.2949 28.2217 16.2855 26.6654 16.2855C25.7373 16.2855 24.9123 16.3137 24.8279 16.3418C24.6311 16.4168 24.5373 16.6137 22.8873 20.3074C22.1186 22.0418 21.3967 23.5605 21.2842 23.6824C21.0029 23.9824 20.4029 24.2543 19.9998 24.2543C19.5217 24.2543 18.9404 23.9543 18.6311 23.5512C18.4248 23.2699 18.3592 23.0824 18.3311 22.623C18.3029 22.0512 18.3217 22.023 20.1873 17.8324C21.2279 15.5074 22.1654 13.5105 22.2779 13.3887C22.3904 13.2668 22.6529 13.0887 22.8592 12.9949C23.2061 12.8355 23.5529 12.8168 27.6873 12.8168C31.8123 12.8168 32.1686 12.8355 32.5154 12.9949Z" fill="#D32E3A"/>
<path d="M5.01845 20.2793C4.71845 20.4855 4.7372 20.9918 5.05595 21.2449C5.2997 21.4418 5.39345 21.4418 10.3622 21.4418C16.0903 21.4418 15.9591 21.4605 15.9684 20.7199C15.9684 20.1105 16.1184 20.1293 10.3903 20.1293C5.87157 20.1293 5.20595 20.148 5.01845 20.2793Z" fill="#D32E3A"/>
<path d="M2.19687 24.3105C2.08437 24.4511 2 24.6293 2 24.723C2 24.8168 2.08437 24.9949 2.19687 25.1355L2.38437 25.3793H8.85312H15.3219L15.5469 25.1449C15.8469 24.8543 15.8469 24.5918 15.5469 24.3011L15.3219 24.0668H8.85312H2.38437L2.19687 24.3105Z" fill="#D32E3A"/>
<path d="M8.61874 28.2011C8.31874 28.4355 8.29062 28.8574 8.56249 29.1293C8.74999 29.3168 8.87187 29.3168 13.9812 29.3168C18.9406 29.3168 19.2312 29.3074 19.3719 29.148C19.5312 28.9699 19.5781 28.5105 19.4562 28.323C19.2594 28.023 18.9781 28.0043 13.925 28.0043C8.95624 28.0043 8.86249 28.0043 8.61874 28.2011Z" fill="#D32E3A"/>
</svg>
