<svg width="196" height="196" viewBox="0 0 196 196" fill="none" xmlns="http://www.w3.org/2000/svg">
<path d="M125.606 14.2283C116.833 15.3293 108.025 19.0108 100.868 24.5157C99.3887 25.6511 80.259 44.5056 57.8951 66.9383C23.5923 101.31 17.3304 107.744 15.6445 110.29C11.8254 116.07 9.24499 122.229 7.79994 128.904C6.73335 133.961 6.73335 143.939 7.79994 148.997C9.24499 155.671 11.8943 161.933 15.7133 167.679C18.1906 171.361 23.8675 177.278 27.4802 179.928C43.1349 191.385 63.5033 193.208 80.5686 184.676C88.0347 180.96 86.3832 182.474 129.941 138.985C158.842 110.152 171.022 97.7661 172.811 95.4265C176.802 90.1624 179.796 83.8317 181.447 77.2257C184.922 63.2225 182.342 48.6343 174.119 36.2482C171.538 32.3603 164.45 25.2727 160.631 22.761C154.748 18.8731 148.452 16.2239 141.949 14.882C137.923 14.0563 129.632 13.7466 125.606 14.2283ZM139.678 20.2838C148.899 21.8665 157.122 26.1672 163.934 32.9452C172.708 41.7531 177.146 52.4878 177.146 64.9772C177.146 74.4732 174.772 82.421 169.508 90.3688C167.719 93.0525 164.416 96.5275 148.211 112.802L128.978 132.069L96.9115 99.9681L64.8107 67.9017L84.078 48.7032C97.8404 35.0096 104.068 28.9885 105.926 27.7499C111.328 24.1029 117.968 21.3504 123.989 20.2838C127.842 19.5957 135.687 19.5957 139.678 20.2838ZM93.0236 104.028L125.021 136.026L105.754 155.259C89.4798 171.464 86.0048 174.767 83.3211 176.556C75.3733 181.82 67.4255 184.194 57.9295 184.194C45.4401 184.194 34.7742 179.79 25.8975 170.948C17.124 162.209 12.6856 151.439 12.6856 138.95C12.6856 129.454 15.0596 121.506 20.3237 113.558C22.1128 110.875 25.4158 107.4 41.5522 91.1946C52.0461 80.6663 60.7508 72.0304 60.854 72.0304C60.9572 72.0304 75.4421 86.4465 93.0236 104.028Z" fill="#D32E3A" fill-opacity="0.07"/>
<path d="M158.12 38.5879C157.225 39.4825 156.503 40.377 156.503 40.549C156.503 40.7555 157.432 42.0629 158.567 43.4735C161.148 46.6733 163.384 50.9741 164.623 55.034C165.517 57.8553 165.586 58.5434 165.586 64.1171C165.621 69.4157 165.517 70.4479 164.829 72.8907C163.797 76.4689 161.698 80.8729 159.806 83.4877C158.98 84.6575 151.308 92.5709 142.775 101.104C134.242 109.602 127.258 116.758 127.258 116.93C127.258 117.137 128.118 118.135 129.15 119.167L131.077 121.059L146.972 105.06C158.258 93.7407 163.419 88.3046 164.692 86.4122C174.428 72.0649 173.775 53.3137 163.04 39.9297C161.801 38.3815 160.563 37.074 160.288 37.0052C160.012 36.9708 159.015 37.6589 158.12 38.5879Z" fill="#D32E3A" fill-opacity="0.07"/>
<path d="M40.8986 105.06C37.1483 105.748 34.1206 107.434 31.3337 110.359C22.8354 119.339 26.8609 134.408 38.7654 138.09C41.2082 138.847 45.2337 138.984 47.7798 138.399C55.5555 136.61 61.3701 128.663 60.7164 120.715C59.8907 110.599 50.7043 103.34 40.8986 105.06ZM48.6399 111.632C50.8075 112.664 52.9063 114.728 54.0073 116.93C54.6954 118.41 54.833 119.132 54.833 121.919C54.833 124.775 54.6954 125.394 53.904 126.908C52.803 129.041 50.3602 131.346 48.1926 132.31C45.7154 133.411 41.6899 133.376 39.1783 132.206C34.3958 129.936 31.6089 124.671 32.6067 119.786C33.3981 116.036 36.4946 112.423 40.0384 111.081C42.1372 110.324 46.4723 110.599 48.6399 111.632Z" fill="#D32E3A" fill-opacity="0.07"/>
<path d="M33.88 145.453C29.7513 147.208 27.1364 150.855 26.8612 155.293C26.6891 158.562 27.5493 161.073 29.7513 163.516C35.7035 170.122 46.4382 167.576 48.9842 158.94C49.6379 156.738 49.6379 155.19 48.9498 152.885C47.4704 147.93 43.7201 144.971 38.4904 144.73C36.3228 144.627 35.5659 144.73 33.88 145.453ZM41.2773 151.336C43.5825 152.85 44.3394 156.222 42.9288 158.699C41.8966 160.557 40.7268 161.245 38.4216 161.417C36.7013 161.555 36.2196 161.452 35.0498 160.66C31.1275 158.08 31.8156 152.231 36.254 150.648C37.9399 150.029 39.6258 150.27 41.2773 151.336Z" fill="#D32E3A" fill-opacity="0.07"/>
</svg>
