<svg width="48" height="48" viewBox="0 0 48 48" fill="none" xmlns="http://www.w3.org/2000/svg">
<path d="M19.8375 0.103123C16.6969 0.431248 13.875 1.69687 12.4406 3.4125C11.3813 4.6875 10.9969 6.38437 11.475 7.75312C11.5688 8.03437 11.5688 8.19375 11.4563 8.6625C11.175 9.7875 11.3156 12.3187 11.7469 14.0156L11.8688 14.4844L11.5125 14.9531C10.9594 15.6844 10.8281 16.1719 10.8281 17.5312C10.8281 18.8531 10.95 19.3219 11.5031 20.0906C12.1031 20.9156 13.0031 21.3656 14.2406 21.4594L15.0188 21.5156L15.225 22.2187C15.3375 22.6125 15.5625 23.1656 15.7313 23.4656L16.0313 24L15.7688 24.0562C15.225 24.1969 14.0438 24.75 13.4344 25.1531C12.2063 25.9781 11.925 26.4375 12.4031 26.8875C12.7219 27.1875 13.0969 27.15 13.5938 26.7562C14.55 25.9969 16.2281 25.2188 16.9125 25.2188C17.0438 25.2188 17.3531 25.3594 17.5969 25.5375C18.2063 25.9688 18.675 26.1937 19.5 26.4469C20.1938 26.6719 20.2781 26.6719 24 26.6719C27.7219 26.6719 27.8063 26.6719 28.5 26.4469C29.3344 26.1937 29.7938 25.9688 30.4125 25.5281C30.825 25.2375 30.9188 25.2 31.2844 25.2562C31.5094 25.2844 32.0156 25.4344 32.4 25.5938C34.4906 26.4281 36.1125 28.1531 36.7781 30.2344C36.9469 30.75 37.4063 32.7656 37.4063 32.9625C37.4063 33.0656 37.0219 33.0937 35.3438 33.0937H33.2813V32.4562C33.2813 31.65 33.1313 31.4062 32.6344 31.4062C32.3906 31.4062 32.2219 31.4719 32.1 31.6031C31.9406 31.7812 31.9219 31.9875 31.8938 33.8812L31.8656 35.9719L29.2219 36.9656C27.7688 37.5094 26.5219 37.9688 26.4469 37.9875C26.3813 38.0062 26.2781 37.8937 26.2125 37.7344C25.9688 37.0594 25.4156 36.6562 24.75 36.6562C24.4031 36.6562 24.1125 36.7781 23.0625 37.3687C22.2281 37.8375 21.7406 38.0531 21.6094 38.025C21.5063 37.9969 20.2406 37.5187 18.7969 36.9562L16.1719 35.9344L16.125 33.8719C16.0781 32.0062 16.0594 31.7812 15.9 31.6031C15.7781 31.4719 15.6094 31.4062 15.3656 31.4062C14.8688 31.4062 14.7188 31.65 14.7188 32.4562V33.0937H12.6562C10.9313 33.0937 10.5938 33.075 10.5938 32.9625C10.5938 32.6344 11.175 30.2719 11.4 29.7094C11.6906 28.9594 11.6531 28.6594 11.2406 28.4437C10.65 28.1437 10.2938 28.5187 9.8625 29.9062C9.53438 30.975 8.25 37.0781 8.25 37.5656C8.25 38.4656 8.7 39.2812 9.4125 39.7031C9.62813 39.825 10.4344 40.125 11.2031 40.3594C11.9813 40.6031 13.0875 40.9406 13.6688 41.1187L14.7188 41.4469V44.5312V47.6156L14.9625 47.8031C15.1031 47.9156 15.2719 48 15.3375 48C15.6094 48 15.9375 47.7656 16.0313 47.5031C16.0875 47.3344 16.125 46.1812 16.125 44.5687C16.125 43.1062 16.1531 41.9062 16.1813 41.9062C16.2094 41.9062 17.0438 42.15 18.0281 42.4594C19.7625 42.9844 19.875 43.0312 21.0469 43.7812C22.4625 44.6812 22.8375 44.8687 23.5031 44.9531C24.4031 45.075 25.6406 44.6062 26.5219 43.8187C26.9156 43.4719 27.15 43.3781 29.2781 42.7125C30.5531 42.3187 31.6594 41.9719 31.7344 41.9437C31.8563 41.8969 31.875 42.225 31.875 44.55C31.875 46.1719 31.9125 47.3344 31.9688 47.5031C32.0625 47.7656 32.3906 48 32.6625 48C32.7281 48 32.8969 47.9156 33.0375 47.8031L33.2813 47.6156V44.5406V41.4656L35.6531 40.7344C36.9469 40.3312 38.2219 39.8906 38.4656 39.7594C39.2625 39.3469 39.75 38.5125 39.75 37.575C39.75 37.0687 38.3531 30.525 38.0719 29.7C37.2844 27.4031 35.5125 25.4531 33.3375 24.4781C33 24.3187 32.55 24.15 32.3438 24.0938L31.9688 23.9906L32.2688 23.4656C32.4375 23.1656 32.6625 22.6125 32.775 22.2187L32.9813 21.5156L33.7594 21.4594C35.3625 21.3281 36.2625 20.7281 36.9188 19.3312C37.1531 18.8344 37.1719 18.7031 37.1719 17.5781C37.1719 16.1625 37.05 15.6937 36.4875 14.9531C36.1781 14.5406 36.1406 14.4375 36.2063 14.2031C36.4688 13.2844 36.675 11.6625 36.6844 10.5C36.6844 9.1875 36.5719 8.48438 36.1969 7.64062C35.8125 6.77812 34.8656 6.04688 33.9563 5.91562C33.5531 5.85938 33.5156 5.83125 33.2344 5.27812C32.8969 4.62187 32.2125 3.69375 31.9594 3.55312C31.4813 3.3 30.9375 3.60938 30.9375 4.14375C30.9375 4.35938 31.05 4.575 31.3219 4.89375C31.6875 5.325 32.25 6.30937 32.25 6.525C32.25 6.7875 32.7938 7.13437 33.375 7.22812C34.3688 7.3875 34.7813 7.725 35.1188 8.67188C35.3438 9.31875 35.3531 11.4375 35.1188 12.6094C34.8844 13.8375 34.9125 13.7812 34.5656 13.6781C34.4063 13.6312 34.0125 13.5938 33.6938 13.5938H33.1219L33.075 12.1594C33.0188 10.4344 32.8594 9.92812 32.1469 9.15C31.2469 8.16562 30.5625 8.03437 29.325 8.61562C27.525 9.45 26.1656 9.75 23.8125 9.81562C21.5156 9.88125 20.0156 9.69375 18.0938 9.075C17.6063 8.91562 17.0531 8.79375 16.8563 8.79375C16.0969 8.80312 15.5344 9.28125 15.1688 10.2375C15.0188 10.6312 14.9625 11.025 14.925 12.1594L14.8781 13.5938H14.3063C13.9875 13.5938 13.5938 13.6312 13.4344 13.6781C13.0875 13.7812 13.1156 13.8375 12.8813 12.6094C12.6562 11.4562 12.6562 9.44062 12.8719 8.65312C13.0219 8.10938 13.0219 8.05312 12.8719 7.62187C12.7688 7.34062 12.7125 6.89062 12.7125 6.42188C12.7031 5.42812 13.0031 4.79062 13.875 3.9375C14.9625 2.86875 16.6219 2.1 18.7688 1.66875C20.175 1.3875 23.1469 1.36875 24.6094 1.63125C25.7719 1.84687 27.1969 2.25937 28.0125 2.625C28.6969 2.94375 29.0156 2.97187 29.325 2.75625C29.5875 2.57812 29.6156 1.97812 29.3719 1.75312C29.2781 1.67812 28.8469 1.4625 28.4062 1.28437C25.8938 0.243748 22.6781 -0.196877 19.8375 0.103123ZM31.0781 10.0687C31.3406 10.3312 31.5094 10.6219 31.575 10.9031C31.7531 11.5969 31.725 20.5687 31.5469 21.4219C31.1438 23.325 29.5781 24.8719 27.7125 25.2094C26.9719 25.3406 21.0281 25.3406 20.2875 25.2094C18.9188 24.9656 17.5219 23.925 16.8938 22.6781C16.3406 21.5906 16.3125 21.2719 16.3125 16.05C16.3125 11.1844 16.3406 10.7062 16.6969 10.3219L16.875 10.1344L17.5406 10.3594C19.4156 10.9969 21.5531 11.2969 23.85 11.2219C26.1375 11.1562 27.8344 10.8 29.5312 10.0312C29.9719 9.83437 30.4125 9.675 30.5063 9.66562C30.6094 9.65625 30.8625 9.84375 31.0781 10.0687ZM14.9063 17.5406V20.0812L14.2594 20.0437C13.3875 19.9969 12.8156 19.65 12.45 18.9469C12.2156 18.5062 12.1875 18.3469 12.1875 17.6062C12.1875 16.6125 12.3 16.1625 12.6656 15.7219C13.0594 15.2437 13.6219 15 14.325 15H14.9063V17.5406ZM34.6594 15.1969C35.1375 15.4312 35.5594 15.9094 35.7094 16.3969C35.7656 16.5937 35.8125 17.1375 35.8125 17.6062C35.8125 18.3469 35.7844 18.5062 35.55 18.9469C35.1844 19.65 34.6125 19.9969 33.7406 20.0437L33.0938 20.0812V17.5406V15H33.675C34.0688 15 34.3781 15.0656 34.6594 15.1969ZM14.7188 35.5687C14.7188 36.45 14.7469 36.6656 14.8875 36.825C15.1125 37.0875 21.3469 39.4688 21.8063 39.4688C22.0781 39.4688 22.4719 39.2906 23.4188 38.7562C24.6562 38.0625 25.0125 37.9594 24.8906 38.3438C24.8625 38.4375 24.8344 38.7375 24.825 38.9906C24.825 39.6375 25.0969 40.0594 25.725 40.3687C25.9875 40.5094 26.2781 40.6781 26.3719 40.7625C26.8688 41.2031 26.1 42.5812 24.9938 43.2094C23.9344 43.8094 23.55 43.7437 21.8063 42.6094L20.4563 41.7375L15.4969 40.2281C12.7781 39.3937 10.425 38.6625 10.275 38.6062C9.92813 38.4656 9.65625 38.0156 9.65625 37.5656C9.65625 37.3781 9.7875 36.6187 9.9375 35.8875C10.0969 35.1656 10.2188 34.5469 10.2188 34.5281C10.2188 34.5187 11.2313 34.5 12.4688 34.5H14.7188V35.5687ZM37.7813 34.5469C37.7813 34.5656 37.9125 35.1937 38.0719 35.925C38.2313 36.6656 38.3625 37.425 38.3531 37.6219C38.3531 38.0344 38.0813 38.4656 37.7156 38.6062C37.3406 38.7562 28.1344 41.625 28.0219 41.625C27.975 41.625 27.9375 41.4281 27.9375 41.175C27.9281 40.6031 27.6844 40.0594 27.2438 39.675C27.0469 39.5062 26.8969 39.3469 26.9156 39.3375C26.9344 39.3187 28.275 38.8031 29.8969 38.1937C31.5188 37.5844 32.9438 37.0031 33.0656 36.9094C33.2719 36.7406 33.2813 36.675 33.2813 35.6156V34.5H35.5313C36.7688 34.5 37.7813 34.5187 37.7813 34.5469Z" fill="#D32E3A"/>
<path d="M20.9997 13.275C20.456 13.7156 19.556 14.0625 18.9654 14.0625C18.356 14.0625 17.9997 14.6906 18.3279 15.1594C18.5341 15.45 18.9654 15.5063 19.781 15.3375C20.6622 15.15 21.5154 14.7281 22.0779 14.1938C22.556 13.7344 22.6029 13.4719 22.3029 13.0875C22.0122 12.7125 21.6279 12.7688 20.9997 13.275Z" fill="#D32E3A"/>
<path d="M25.6965 13.0875C25.3871 13.4813 25.4434 13.7625 25.9309 14.2125C26.5121 14.7375 27.3559 15.1594 28.2184 15.3375C29.034 15.5063 29.4653 15.45 29.6715 15.1594C29.9996 14.6906 29.6434 14.0625 29.0246 14.0625C28.4434 14.0625 27.5621 13.725 26.9903 13.275C26.334 12.7594 25.9871 12.7125 25.6965 13.0875Z" fill="#D32E3A"/>
<path d="M19.7532 16.5187C19.5376 16.6875 19.4157 17.0719 19.5095 17.3156C19.6501 17.7 19.997 17.8406 20.7282 17.7937C21.2907 17.7656 21.422 17.7187 21.572 17.5406C21.8157 17.2406 21.797 16.8562 21.5345 16.6125C21.347 16.4344 21.2064 16.4062 20.6157 16.4062C20.1939 16.4062 19.847 16.4531 19.7532 16.5187Z" fill="#D32E3A"/>
<path d="M26.4559 16.6219C26.2028 16.8937 26.1934 17.25 26.4278 17.5406C26.5778 17.7187 26.7091 17.7656 27.2716 17.7937C28.0028 17.8406 28.3497 17.7 28.4903 17.3156C28.5841 17.0531 28.4434 16.6219 28.2184 16.5C28.1247 16.4437 27.7309 16.4062 27.3466 16.4062C26.7466 16.4062 26.6341 16.4344 26.4559 16.6219Z" fill="#D32E3A"/>
<path d="M21.1598 19.3687C20.5316 19.5656 19.9316 20.175 19.7441 20.8219C19.5566 21.4312 19.5566 21.5062 19.7441 22.1156C19.9129 22.6969 20.391 23.2594 20.9441 23.5219C21.3191 23.7094 21.5066 23.7188 23.9816 23.7188C26.9066 23.7188 27.0473 23.7 27.6379 23.1281C28.2473 22.5469 28.4816 21.8156 28.3035 21.0187C28.0973 20.0156 27.2816 19.3312 26.2129 19.2469C25.6785 19.2 25.5473 19.2281 24.8723 19.5375C24.4598 19.725 24.0566 19.875 23.991 19.875C23.916 19.875 23.5879 19.7437 23.2504 19.5844C22.5191 19.2375 21.7973 19.1625 21.1598 19.3687ZM22.8285 20.925C23.316 21.15 23.5973 21.2156 24.0004 21.2156C24.4035 21.2156 24.6848 21.15 25.1723 20.925C25.8754 20.5875 26.2973 20.55 26.5879 20.7937C27.066 21.1781 27.1129 21.6187 26.7285 22.05L26.4566 22.3594H24.0191C21.591 22.3594 21.5816 22.3594 21.3473 22.1437C20.7379 21.5625 21.1035 20.6437 21.9473 20.625C22.0879 20.625 22.4816 20.7562 22.8285 20.925Z" fill="#D32E3A"/>
<path d="M18.2812 30.2812C18.1781 30.3844 18.0938 30.5906 18.0938 30.7312C18.0938 31.1156 18.8719 33.1781 19.1063 33.4219C19.4719 33.8062 20.0531 33.7781 20.4938 33.3656L20.6906 33.1781L20.9531 33.9375C21.1031 34.35 21.3 34.7625 21.3938 34.8469C21.7875 35.2031 22.5 34.9125 22.5 34.3969C22.5 33.9375 21.6938 31.8469 21.4219 31.6125C21.0844 31.3219 20.625 31.3406 20.25 31.65C20.0906 31.7906 19.95 31.8844 19.9313 31.8656C19.9125 31.8469 19.7625 31.4812 19.5938 31.05C19.4344 30.6281 19.2188 30.2344 19.125 30.1875C18.8438 30.0375 18.4875 30.075 18.2812 30.2812Z" fill="#D32E3A"/>
<path d="M28.8563 30.1875C28.7719 30.2437 28.5656 30.6281 28.4062 31.0594C28.2375 31.4812 28.0875 31.8469 28.0688 31.8656C28.05 31.8844 27.9094 31.7906 27.75 31.65C27.375 31.3406 26.9156 31.3219 26.5781 31.6125C26.3063 31.8469 25.5 33.9375 25.5 34.3969C25.5 34.9125 26.2125 35.2031 26.6063 34.8469C26.7 34.7625 26.8969 34.35 27.0469 33.9375L27.3094 33.1781L27.5063 33.3656C27.9469 33.7781 28.5281 33.8062 28.8938 33.4219C29.1281 33.1781 29.9062 31.1156 29.9062 30.7312C29.9062 30.2344 29.3156 29.925 28.8563 30.1875Z" fill="#D32E3A"/>
<path d="M11.175 42.5062C9.825 42.8625 9.60938 43.0125 9.60938 43.6312C9.60938 43.9031 9.66563 44.1094 9.7875 44.2406C10.0219 44.5031 9.94688 44.5687 9.10313 44.7656C8.325 44.9531 8.0625 45.15 8.0625 45.5625C8.0625 45.9375 8.35313 46.2188 8.74688 46.2188C9.10313 46.2188 11.0156 45.7406 11.325 45.5719C11.5969 45.4219 11.8219 44.9156 11.7469 44.6156C11.7188 44.4937 11.6156 44.2781 11.5125 44.1375L11.3438 43.8937L12.0656 43.725C13.1906 43.4625 13.6031 42.9375 13.0781 42.4219C12.7875 42.1219 12.6 42.1312 11.175 42.5062Z" fill="#D32E3A"/>
<path d="M34.922 42.4219C34.397 42.9375 34.8095 43.4625 35.9345 43.725L36.6564 43.8937L36.4876 44.1375C36.3845 44.2781 36.2814 44.4937 36.2532 44.6156C36.1782 44.9156 36.4032 45.4219 36.6751 45.5719C36.9845 45.7406 38.897 46.2188 39.2626 46.2188C39.647 46.2188 39.9376 45.9375 39.9376 45.5625C39.9376 45.15 39.6751 44.9531 38.897 44.7656C38.0532 44.5687 37.9782 44.5031 38.2126 44.2406C38.4939 43.9312 38.4564 43.2562 38.147 42.9937C37.9126 42.7875 35.8126 42.1875 35.3439 42.1875C35.2314 42.1875 35.0439 42.2906 34.922 42.4219Z" fill="#D32E3A"/>
</svg>
