<svg width="512" height="512" viewBox="0 0 512 512" fill="none" xmlns="http://www.w3.org/2000/svg">
<path d="M249.2 1.09999C244.7 2.39999 238.4 9.09999 237.1 13.7C236.4 16.3 236 52.9 236 126.7V236L124.7 236.2L13.4 236.5L9.3 239.2C3 243.3 0.5 248.2 0.5 256.1C0.5 261.5 1 263.3 3.2 266.7C4.7 268.9 7.6 271.8 9.7 273.1L13.5 275.5L124.7 275.8L236 276L236.2 387.3L236.5 498.5L238.9 502.3C240.2 504.4 243.1 507.3 245.3 508.8C248.7 511.1 250.5 511.5 256 511.5C261.5 511.5 263.3 511.1 266.7 508.8C268.9 507.3 271.8 504.4 273.1 502.3L275.5 498.5L275.8 387.3L276 276L387.3 275.8L498.5 275.5L502.3 273.1C504.4 271.8 507.3 268.9 508.8 266.7C511.1 263.3 511.5 261.5 511.5 256C511.5 250.5 511.1 248.7 508.8 245.3C507.3 243.1 504.4 240.2 502.3 238.9L498.5 236.5L387.3 236.2L276 236L275.8 124.7L275.5 13.5L273.1 9.69999C268.4 2.09999 258 -1.60001 249.2 1.09999Z" fill="black"/>
</svg>
