<svg width="196" height="196" viewBox="0 0 196 196" fill="none" xmlns="http://www.w3.org/2000/svg">
<path d="M69.8008 7.99626C56.5774 9.37517 44.839 13.9362 34.6209 21.6439C30.9792 24.4018 24.5796 30.8013 21.8218 34.4431C1.31493 61.6323 3.86061 99.1811 27.9032 123.188C39.8537 135.139 54.7389 141.786 72.3111 143.023C75.0336 143.2 75.8822 143.129 76.7661 142.705C78.4986 141.786 78.7814 140.266 77.4732 138.745C76.7307 137.861 76.4479 137.791 72.099 137.508C64.7802 137.013 60.0777 136.023 53.7489 133.654C34.9038 126.583 20.655 110.778 15.3869 91.1905C12.9119 81.821 12.8412 69.6937 15.2101 60.2534C19.1347 44.8379 29.3528 30.8367 42.753 22.5986C62.8709 10.1884 87.9388 10.0469 107.915 22.2096C111.38 24.331 112.83 24.5432 113.961 23.0936C115.34 21.3611 114.739 20.1236 111.592 18.1083C106.077 14.5726 97.8033 11.1077 91.1916 9.58731C84.7213 8.06697 75.5639 7.39519 69.8008 7.99626Z" fill="#D32E3A" fill-opacity="0.07"/>
<path d="M118.31 7.99629C118.063 8.10236 117.638 8.63271 117.355 9.16306C116.896 10.047 116.825 18.6386 116.825 76.164V142.104H108.552C98.3335 142.104 97.3789 142.352 97.3789 145.216C97.3789 146.135 99.9246 148.645 119.512 166.995C131.922 178.628 141.999 187.82 142.494 187.926C142.989 188.068 143.732 187.997 144.156 187.785C145.464 187.149 188.387 146.736 188.776 145.781C189.023 145.109 188.953 144.65 188.564 143.943C187.609 142.21 186.937 142.104 177.745 142.104H169.153V120.254V98.368L168.34 97.6255C167.244 96.6001 165.794 96.6355 164.733 97.7315L163.849 98.5801V121.916C163.849 145.852 163.885 146.665 165.228 147.302C165.547 147.443 168.799 147.655 172.476 147.761L179.159 147.938L161.233 164.732C151.333 173.961 143.201 181.527 143.095 181.527C142.989 181.527 134.857 173.961 124.992 164.732L107.031 147.938L113.855 147.761C121.952 147.549 122.058 147.514 122.305 144.013C122.376 142.882 122.447 112.935 122.482 77.4722V13.0523H143.166H163.849V51.2021C163.849 89.2459 163.849 89.3166 164.592 90.2713C165.511 91.438 167.385 91.5441 168.446 90.4834C169.153 89.7763 169.153 89.3166 169.153 49.505V9.19841L168.234 8.49129C167.314 7.74879 167.067 7.74879 143.024 7.78415C129.695 7.78415 118.558 7.89021 118.31 7.99629Z" fill="#D32E3A" fill-opacity="0.07"/>
<path d="M69.4475 20.8662C51.6631 22.8461 35.399 33.9835 27.0195 49.8586C18.3924 66.3348 18.7106 86.771 27.9387 102.646C41.1268 125.38 67.6443 135.563 92.7829 127.537C99.1471 125.487 106.112 121.527 111.557 116.86C114.492 114.349 115.022 113.324 114.209 111.733C113.078 109.576 111.522 109.788 108.481 112.44C102.082 118.026 95.1871 121.562 86.4187 123.754C82.1405 124.815 72.6296 125.098 67.9271 124.284C56.3655 122.304 46.5717 117.001 38.8286 108.515C26.5952 95.0798 22.8474 75.4569 29.2116 58.1321C33.2422 47.1715 41.94 37.2363 52.4763 31.6499C70.6143 22.0683 93.2425 24.7907 108.517 38.4384C110.85 40.5245 111.593 40.8427 112.901 40.3123C114.209 39.7466 114.881 38.297 114.386 37.0242C113.714 35.1856 106.713 29.8468 101.233 26.8768C91.899 21.8561 80.2666 19.664 69.4475 20.8662Z" fill="#D32E3A" fill-opacity="0.07"/>
<path d="M73.9019 43.1408C73.1241 43.7418 72.9827 44.1307 72.9827 45.7572V47.6311L71.6745 47.8432C64.391 49.1514 58.5218 54.9852 57.9207 61.5262C57.2489 68.5976 62.1989 74.9618 70.1188 77.26L72.8059 78.0378L72.912 87.7962L72.9827 97.5547H72.2048C70.932 97.5547 67.8913 95.999 66.2649 94.514C64.4617 92.8876 63.4717 90.9783 63.1889 88.7155C62.9414 86.5588 62.0575 85.5334 60.4664 85.5334C58.9107 85.5334 57.7793 86.7709 57.7793 88.4327C57.7793 91.933 60.325 96.7061 63.5071 99.2518C65.3456 100.701 68.7045 102.292 71.1441 102.858L72.9827 103.282V104.944C72.9827 107.737 74.7151 109.116 76.8365 108.02C78.0387 107.384 78.2862 106.853 78.2862 104.803V103.282L80.1601 102.858C86.6303 101.373 91.9338 96.3526 93.1713 90.5541C93.7017 88.0437 93.2067 84.5434 92.0399 82.1038C90.1307 78.2499 85.11 74.4314 80.4783 73.3707L78.463 72.9111L78.3569 62.9405L78.2862 53.0053L79.2408 53.2174C81.0793 53.677 84.12 55.4095 85.4282 56.7884C86.8778 58.3088 87.6203 59.8291 88.0093 62.198C88.5042 65.2387 90.8024 66.3347 92.6763 64.4608C93.4895 63.6476 93.5603 63.3648 93.3481 61.6323C92.6056 55.3388 87.9385 50.2121 81.1501 48.3382L78.2862 47.525V45.8279C78.2862 42.8933 75.988 41.479 73.9019 43.1408ZM72.9827 62.7284C72.9827 68.9158 72.8412 72.4514 72.6291 72.4514C71.8513 72.4514 68.5631 71.0018 67.2549 70.1179C64.2849 68.0319 62.5524 63.9658 63.401 60.9252C64.2849 57.7431 67.0074 54.9852 70.5784 53.7124C71.6038 53.3235 72.5584 53.0406 72.7352 53.0053C72.8766 53.0053 72.9827 57.3895 72.9827 62.7284ZM82.7058 80.0178C90.2014 84.0838 89.6003 93.1705 81.5743 96.7061C78.0387 98.2972 78.2862 98.9336 78.2862 87.973V78.3914L79.4529 78.6389C80.054 78.7803 81.539 79.3814 82.7058 80.0178Z" fill="#D32E3A" fill-opacity="0.07"/>
<path d="M108.339 128.351C102.965 131.674 97.3786 134.043 90.8377 135.775C86.7716 136.836 85.7109 137.508 85.7109 139.099C85.7109 140.266 87.0191 141.751 88.0445 141.751C89.4587 141.751 95.8229 140.054 99.5 138.675C103.283 137.296 109.294 134.255 112.228 132.275C113.961 131.108 114.173 130.826 114.279 129.623C114.527 126.547 112.087 126.052 108.339 128.351Z" fill="#D32E3A" fill-opacity="0.07"/>
</svg>
